<svg width="82" height="82" viewBox="0 0 82 82" fill="none" xmlns="http://www.w3.org/2000/svg">
<path d="M0 6C0 2.68629 2.68629 0 6 0H76C79.3137 0 82 2.68629 82 6V76C82 79.3137 79.3137 82 76 82H6C2.68629 82 0 79.3137 0 76V6Z" fill="url(#paint0_linear_26_18)"/>
<path d="M23.232 56.44C21.208 56.44 19.3893 55.9267 17.776 54.9C16.1627 53.844 14.8867 52.4213 13.948 50.632C13.0387 48.8133 12.584 46.716 12.584 44.34C12.584 42.0227 13.0387 39.9547 13.948 38.136C14.8867 36.3173 16.148 34.88 17.732 33.824C19.3453 32.768 21.1787 32.24 23.232 32.24C24.3173 32.24 25.3587 32.416 26.356 32.768C27.3827 33.0907 28.292 33.5453 29.084 34.132C29.9053 34.7187 30.5653 35.3787 31.064 36.112C31.5627 36.816 31.8413 37.564 31.9 38.356L30.316 38.62V23.44H36.564V56H30.668L30.404 50.632L31.636 50.764C31.5773 51.4973 31.3133 52.2013 30.844 52.876C30.3747 53.5507 29.744 54.1667 28.952 54.724C28.1893 55.252 27.3093 55.6773 26.312 56C25.344 56.2933 24.3173 56.44 23.232 56.44ZM24.64 51.248C25.8133 51.248 26.84 50.9547 27.72 50.368C28.6 49.7813 29.2893 48.9747 29.788 47.948C30.2867 46.9213 30.536 45.7187 30.536 44.34C30.536 42.9907 30.2867 41.8027 29.788 40.776C29.2893 39.72 28.6 38.9133 27.72 38.356C26.84 37.7693 25.8133 37.476 24.64 37.476C23.4667 37.476 22.44 37.7693 21.56 38.356C20.7093 38.9133 20.0347 39.72 19.536 40.776C19.0667 41.8027 18.832 42.9907 18.832 44.34C18.832 45.7187 19.0667 46.9213 19.536 47.948C20.0347 48.9747 20.7093 49.7813 21.56 50.368C22.44 50.9547 23.4667 51.248 24.64 51.248ZM53.2593 56.44C50.7366 56.44 48.5366 55.9267 46.6592 54.9C44.7819 53.8733 43.3152 52.4653 42.2592 50.676C41.2032 48.8867 40.6752 46.8333 40.6752 44.516C40.6752 42.7267 40.9686 41.084 41.5552 39.588C42.1419 38.092 42.9632 36.8013 44.0192 35.716C45.0752 34.6013 46.3219 33.7507 47.7592 33.164C49.2259 32.548 50.8099 32.24 52.5112 32.24C54.0953 32.24 55.5619 32.5333 56.9113 33.12C58.2606 33.6773 59.4193 34.484 60.3873 35.54C61.3846 36.5667 62.1472 37.784 62.6753 39.192C63.2033 40.6 63.4379 42.14 63.3793 43.812L63.3352 45.748H44.6352L43.6232 41.92H58.1873L57.4833 42.712V41.744C57.4246 40.952 57.1606 40.2333 56.6912 39.588C56.2513 38.9427 55.6793 38.444 54.9753 38.092C54.2713 37.74 53.4792 37.564 52.5992 37.564C51.3086 37.564 50.2086 37.8133 49.2992 38.312C48.4192 38.8107 47.7446 39.544 47.2752 40.512C46.8059 41.48 46.5712 42.6533 46.5712 44.032C46.5712 45.44 46.8646 46.6573 47.4513 47.684C48.0672 48.7107 48.9179 49.5173 50.0032 50.104C51.1179 50.6613 52.4233 50.94 53.9193 50.94C54.9459 50.94 55.8846 50.7787 56.7353 50.456C57.5859 50.1333 58.4953 49.576 59.4633 48.784L62.4553 52.964C61.6046 53.7267 60.6659 54.372 59.6392 54.9C58.6126 55.3987 57.5566 55.78 56.4712 56.044C55.3859 56.308 54.3153 56.44 53.2593 56.44ZM69.8885 56.484C68.7445 56.484 67.8645 56.1613 67.2485 55.516C66.6325 54.8707 66.3245 53.9467 66.3245 52.744C66.3245 51.6587 66.6472 50.7787 67.2925 50.104C67.9672 49.4 68.8325 49.048 69.8885 49.048C71.0032 49.048 71.8685 49.3707 72.4845 50.016C73.1005 50.6613 73.4085 51.5707 73.4085 52.744C73.4085 53.8587 73.0858 54.768 72.4405 55.472C71.7952 56.1467 70.9445 56.484 69.8885 56.484Z" fill="white"/>
<defs>
<linearGradient id="paint0_linear_26_18" x1="41" y1="0" x2="41" y2="82" gradientUnits="userSpaceOnUse">
<stop stop-color="#4F46E5"/>
<stop offset="1" stop-color="#9F3495" stop-opacity="0.84"/>
</linearGradient>
</defs>
</svg>
