<svg width="65" height="65" viewBox="0 0 65 65" fill="none" xmlns="http://www.w3.org/2000/svg">
<path d="M0 6C0 2.68629 2.68629 0 6 0H59C62.3137 0 65 2.68629 65 6V59C65 62.3137 62.3137 65 59 65H6C2.68629 65 0 62.3137 0 59V6Z" fill="#4F46E5"/>
<path d="M11.572 45V18.4H22.25C24.1753 18.4 25.9107 18.7167 27.456 19.35C29.0267 19.9833 30.3693 20.8953 31.484 22.086C32.624 23.2767 33.4853 24.6827 34.068 26.304C34.676 27.9253 34.98 29.724 34.98 31.7C34.98 33.676 34.676 35.4873 34.068 37.134C33.4853 38.7553 32.6367 40.1613 31.522 41.352C30.4073 42.5173 29.0647 43.4167 27.494 44.05C25.9233 44.6833 24.1753 45 22.25 45H11.572ZM16.512 41.162L16.132 40.44H22.06C23.3013 40.44 24.4033 40.2373 25.366 39.832C26.354 39.4267 27.19 38.844 27.874 38.084C28.558 37.324 29.0773 36.412 29.432 35.348C29.7867 34.2587 29.964 33.0427 29.964 31.7C29.964 30.3573 29.7867 29.154 29.432 28.09C29.0773 27.0007 28.5453 26.076 27.836 25.316C27.152 24.556 26.3287 23.9733 25.366 23.568C24.4033 23.1627 23.3013 22.96 22.06 22.96H16.018L16.512 22.314V41.162ZM47.9318 45.38C45.8291 45.38 43.9671 44.9367 42.3458 44.05C40.7498 43.1633 39.4958 41.96 38.5838 40.44C37.6971 38.8947 37.2538 37.134 37.2538 35.158C37.2538 33.5873 37.5071 32.156 38.0138 30.864C38.5204 29.572 39.2171 28.4573 40.1038 27.52C41.0158 26.5573 42.0924 25.8227 43.3338 25.316C44.6004 24.784 45.9811 24.518 47.4758 24.518C48.7931 24.518 50.0218 24.7713 51.1618 25.278C52.3018 25.7847 53.2898 26.4813 54.1258 27.368C54.9618 28.2293 55.5951 29.268 56.0258 30.484C56.4818 31.6747 56.6971 32.9793 56.6718 34.398L56.6338 36.032H40.4078L39.5338 32.84H52.7198L52.1118 33.486V32.65C52.0358 31.8647 51.7824 31.1807 51.3518 30.598C50.9211 29.99 50.3638 29.5213 49.6798 29.192C49.0211 28.8373 48.2864 28.66 47.4758 28.66C46.2344 28.66 45.1831 28.9007 44.3218 29.382C43.4858 29.8633 42.8524 30.56 42.4218 31.472C41.9911 32.3587 41.7758 33.4733 41.7758 34.816C41.7758 36.108 42.0418 37.2353 42.5738 38.198C43.1311 39.1607 43.9038 39.908 44.8918 40.44C45.9051 40.9467 47.0831 41.2 48.4258 41.2C49.3631 41.2 50.2244 41.048 51.0098 40.744C51.7951 40.44 52.6438 39.8953 53.5558 39.11L55.8738 42.34C55.1898 42.9733 54.4044 43.518 53.5178 43.974C52.6564 44.4047 51.7444 44.7467 50.7818 45C49.8191 45.2533 48.8691 45.38 47.9318 45.38Z" fill="white"/>
</svg>
